<?xml version="1.0" encoding="utf-8"?>
<svg viewBox="10.544 -3.33 500 500" xmlns="http://www.w3.org/2000/svg">
  <defs>
    <linearGradient gradientUnits="userSpaceOnUse" x1="147.059" y1="59.378" x2="147.059" y2="124.861" id="gradient-0" gradientTransform="matrix(1, 0, 0, 1.014706, 0, 0)">
      <stop offset="0" style="stop-color: rgba(85, 127, 218, 1)"/>
      <stop offset="1" style="stop-color: rgba(36, 77, 165, 1)"/>
    </linearGradient>
    <linearGradient gradientUnits="userSpaceOnUse" x1="-122.642" y1="-59.378" x2="-122.642" y2="6.105" id="gradient-1" gradientTransform="matrix(0.906556, 0, 0, 1, 244.498116, 118.755997)">
      <stop offset="0" style="stop-color: rgba(85, 127, 218, 1)"/>
      <stop offset="1" style="stop-color: rgba(36, 77, 165, 1)"/>
    </linearGradient>
    <linearGradient gradientUnits="userSpaceOnUse" x1="97.146" y1="78.345" x2="97.146" y2="164.745" id="gradient-4" gradientTransform="matrix(0.260212, 1.130655, -0.790319, -0.012075, -36.691895, -113.994358)">
      <stop offset="0" style="stop-color: rgba(85, 127, 218, 1)"/>
      <stop offset="1" style="stop-color: rgba(36, 77, 165, 1)"/>
    </linearGradient>
    <linearGradient gradientUnits="userSpaceOnUse" x1="-122.642" y1="-59.378" x2="-122.642" y2="6.105" id="gradient-2" gradientTransform="matrix(0.906556, 0, 0, 1, 0.000122, 0.000001)">
      <stop offset="0" style="stop-color: rgba(85, 127, 218, 1)"/>
      <stop offset="1" style="stop-color: rgba(36, 77, 165, 1)"/>
    </linearGradient>
    <linearGradient gradientUnits="userSpaceOnUse" x1="147.059" y1="59.378" x2="147.059" y2="124.861" id="gradient-3" gradientTransform="matrix(-1.000087, -0.001465, 0.003715, -1.0147, 23.678958, 66.179791)">
      <stop offset="0" style="stop-color: rgba(85, 127, 218, 1)"/>
      <stop offset="1" style="stop-color: rgba(36, 77, 165, 1)"/>
    </linearGradient>
  </defs>
  <path d="M 132.021 36.126 L 132.021 59.878 L 67.203 59.878 L 67.203 36.126 Z M 68.203 58.878 L 131.021 58.878 L 131.021 37.126 L 68.203 37.126 Z" style="fill: none;"/>
  <path d="M 132.021 36.126 L 132.021 59.878 L 67.203 59.878 L 67.203 36.126 Z M 68.203 58.878 L 131.021 58.878 L 131.021 37.126 L 68.203 37.126 Z" style="fill: none;"/>
  <g style="" transform="matrix(0.729662, 0, 0, 1.152542, -228.649307, -80.359047)">
    <g transform="matrix(1, 0, 0, 1, 197.741043, 19.741142)">
      <rect x="134.85" y="60.251" width="24.417" height="66.446" style="paint-order: stroke markers; fill: url(#gradient-0);" transform="matrix(1, 0, -0.061123, 1, 37.937447, -13.027807)" rx="1.331" ry="1.331"/>
      <rect x="122.249" y="59.378" width="22.135" height="65.483" style="paint-order: stroke markers; fill: url(#gradient-1);" transform="matrix(-1, 0, 0.393956, 1, 301.571383, -12.023033)" rx="1.522" ry="1.522"/>
      <rect x="-89.081" y="-60.886" width="16.13" height="67.146" style="paint-order: stroke markers; fill: url(#gradient-4);" transform="matrix(-0.368891, -0.929473, 1.075408, -0.001186, 168.639099, -20.705654)" ry="1.331" rx="1.331"/>
      <rect x="-122.249" y="-59.378" width="22.135" height="65.483" style="paint-order: stroke markers; fill: url(#gradient-2);" transform="matrix(1, 0, -0.393956, 1, 330.804077, 106.505859)" rx="1.522" ry="1.522"/>
      <rect x="-134.85" y="-60.251" width="24.417" height="66.446" style="paint-order: stroke markers; fill: url(#gradient-3);" transform="matrix(1, 0, -0.061123, -1, 375.435482, 53.418198)" rx="1.331" ry="1.331"/>
    </g>
  </g>
</svg>